<svg xmlns="http://www.w3.org/2000/svg" width="1200" height="680" viewBox="0 0 1200 680"><rect width="1200" height="680" fill="#070a10"/><g font-family="Arial,sans-serif"><text x="70" y="60" fill="#7dd3fc" font-size="14" font-weight="700">LOCAL AUDIO TOOL · NO UPLOAD</text><text x="70" y="115" fill="#f8fafc" font-size="40" font-weight="700">SilenceSketch</text><text x="70" y="150" fill="#94a3b8" font-size="18">긴 무음을 보고, 남길 쉼을 골라 WAV로 저장</text><g transform="translate(70 190)"><rect width="240" height="90" rx="15" fill="#0d131e" stroke="#263247"/><text x="18" y="32" fill="#7e8da3" font-size="14">원본</text><text x="18" y="67" fill="#fff" font-size="28" font-weight="700">0:09.5</text><rect x="255" width="240" height="90" rx="15" fill="#0d131e" stroke="#263247"/><text x="273" y="32" fill="#7e8da3" font-size="14">잘라낼 무음</text><text x="273" y="67" fill="#fca5a5" font-size="28" font-weight="700">0:01.5</text><rect x="510" width="240" height="90" rx="15" fill="#0d131e" stroke="#263247"/><text x="528" y="32" fill="#7e8da3" font-size="14">결과</text><text x="528" y="67" fill="#86efac" font-size="28" font-weight="700">0:07.9</text><rect x="765" width="240" height="90" rx="15" fill="#0d131e" stroke="#263247"/><text x="783" y="32" fill="#7e8da3" font-size="14">선택한 컷</text><text x="783" y="67" fill="#fff" font-size="28" font-weight="700">2개</text></g><g transform="translate(70 310)"><rect width="1005" height="210" rx="17" fill="#0b111b" stroke="#263247"/><text x="20" y="35" fill="#fff" font-size="17" font-weight="700">말의 리듬</text><rect x="20" y="55" width="965" height="130" fill="#0c1220"/><rect x="205" y="55" width="75" height="130" fill="#fb7185" opacity=".28"/><rect x="742" y="55" width="90" height="130" fill="#fb7185" opacity=".28"/><path d="M20 120L35 90L50 150L65 80L80 155L95 95L110 145L125 85L140 155L155 98L170 142L185 110L200 120M300 120L315 88L330 151L345 83L360 157L375 96L390 144L405 89L420 150L435 101L450 139L465 120M520 120L535 91L550 152L565 81L580 158L595 95L610 146L625 87L640 151L655 100L670 140L685 120M850 120L865 90L880 154L895 82L910 157L925 96L940 145L955 88L970 120" fill="none" stroke="#7dd3fc" stroke-width="3"/></g><g transform="translate(70 550)"><rect width="1005" height="80" rx="15" fill="#0d131e" stroke="#263247"/><text x="22" y="32" fill="#fff" font-size="16">✓ 0:01.7 → 0:02.4 삭제</text><text x="350" y="32" fill="#64748b" font-size="16">□ 0:04.1 → 0:05.5 유지</text><text x="700" y="32" fill="#fff" font-size="16">✓ 0:06.9 → 0:07.8 삭제</text><text x="22" y="59" fill="#94a3b8" font-size="13">사용자가 체크를 끄면 의도적인 쉼은 그대로 남겨.</text></g></g></svg>